HIERARCHY
ROOT Hips
{
	OFFSET 0.000000 0.000000 0.000000
	CHANNELS 6 Xposition Yposition Zposition Zrotation Xrotation Yrotation
	JOINT Spine1
	{
		OFFSET 0.000000 -0.000023 138.847351
		CHANNELS 6 Xposition Yposition Zposition Zrotation Xrotation Yrotation
		JOINT Neck
		{
			OFFSET 0.000000 -0.000018 110.694000
			CHANNELS 6 Xposition Yposition Zposition Zrotation Xrotation Yrotation
			JOINT Head
			{
				OFFSET 0.000000 -9.081811 70.384003
				CHANNELS 6 Xposition Yposition Zposition Zrotation Xrotation Yrotation
				End Site
				{
					OFFSET 0.000000 -0.000014 90.817780
				}
			}
		}
		JOINT LeftShoulder
		{
			OFFSET 18.288349 2.400605 89.379486
			CHANNELS 6 Xposition Yposition Zposition Zrotation Xrotation Yrotation
			JOINT LeftArm
			{
				OFFSET 65.257996 0.000000 0.000000
				CHANNELS 6 Xposition Yposition Zposition Zrotation Xrotation Yrotation
				JOINT LeftForeArm
				{
					OFFSET 127.960495 0.000000 0.000000
					CHANNELS 6 Xposition Yposition Zposition Zrotation Xrotation Yrotation
					JOINT LeftHand
					{
						OFFSET 118.922485 0.000000 0.000000
						CHANNELS 6 Xposition Yposition Zposition Zrotation Xrotation Yrotation
						End Site
						{
							OFFSET 68.113342 0.000000 0.000000
						}
					}
				}
			}
		}
		JOINT RightShoulder
		{
			OFFSET -18.036051 2.400605 89.379486
			CHANNELS 6 Xposition Yposition Zposition Zrotation Xrotation Yrotation
			JOINT RightArm
			{
				OFFSET -65.257996 0.000000 0.000000
				CHANNELS 6 Xposition Yposition Zposition Zrotation Xrotation Yrotation
				JOINT RightForeArm
				{
					OFFSET -127.960503 0.000000 0.000000
					CHANNELS 6 Xposition Yposition Zposition Zrotation Xrotation Yrotation
					JOINT RightHand
					{
						OFFSET -118.922516 0.000000 0.000000
						CHANNELS 6 Xposition Yposition Zposition Zrotation Xrotation Yrotation
						End Site
						{
							OFFSET -68.113342 0.000000 0.000000
						}
					}
				}
			}
		}
	}
	JOINT LeftUpLeg
	{
		OFFSET 45.409000 0.000000 0.000000
		CHANNELS 6 Xposition Yposition Zposition Zrotation Xrotation Yrotation
		JOINT LeftLeg
		{
			OFFSET 0.000000 0.000031 -190.974503
			CHANNELS 6 Xposition Yposition Zposition Zrotation Xrotation Yrotation
			JOINT LeftFoot
			{
				OFFSET 0.000000 0.000033 -200.215012
				CHANNELS 6 Xposition Yposition Zposition Zrotation Xrotation Yrotation
				JOINT LeftToeBase
				{
					OFFSET 0.000000 -68.113487 -29.515839
					CHANNELS 6 Xposition Yposition Zposition Zrotation Xrotation Yrotation
					End Site
					{
						OFFSET 0.000000 -18.163559 0.000000
					}
				}
			}
		}
	}
	JOINT RightUpLeg
	{
		OFFSET -45.409000 0.000000 0.000000
		CHANNELS 6 Xposition Yposition Zposition Zrotation Xrotation Yrotation
		JOINT RightLeg
		{
			OFFSET 0.000000 0.000031 -190.974503
			CHANNELS 6 Xposition Yposition Zposition Zrotation Xrotation Yrotation
			JOINT RightFoot
			{
				OFFSET 0.000000 0.000033 -200.215012
				CHANNELS 6 Xposition Yposition Zposition Zrotation Xrotation Yrotation
				JOINT RightToeBase
				{
					OFFSET 0.000000 -68.113487 -29.515839
					CHANNELS 6 Xposition Yposition Zposition Zrotation Xrotation Yrotation
					End Site
					{
						OFFSET 0.000000 -18.163559 0.000000
					}
				}
			}
		}
	}
}
MOTION
Frames: 9
Frame Time: 0.041667
-17.132004 -9.229619 375.490570 -1.186155 18.239518 -2.512929 0.000001 -0.000013 138.847397 -3.191313 -19.976572 -11.084092 -0.000008 -0.000012 110.693977 -3.385632 11.025957 -3.035703 0.000004 -9.081806 70.383926 -1.811209 3.037502 14.773091 18.288351 2.400614 89.379517 1.299061 -5.323668 -17.593959 65.258011 0.000008 0.000026 -9.092889 -11.757668 8.385021 127.960503 -0.000012 0.000020 1.295251 -6.608695 2.603104 118.922470 0.000021 0.000019 16.303976 -7.173941 -3.767972 -18.036055 2.400615 89.379448 -4.308944 -0.857376 13.868364 -65.258011 -0.000001 0.000092 24.214515 18.344087 -22.302844 -127.960495 0.000002 0.000102 75.983225 37.040751 37.393575 -118.922585 0.000051 0.000063 -4.512645 7.525771 33.315692 45.409000 0.000010 0.000003 17.551148 -37.090697 -13.907844 0.000012 0.000045 -190.974487 16.032018 32.301809 3.238356 -0.000005 0.000020 -200.214966 18.233740 4.095192 7.079485 0.000006 -68.113480 -29.515865 0.000001 -0.000001 -0.000002 -45.409000 0.000002 -0.000010 13.576310 -26.927138 35.877170 -0.000014 0.000049 -190.974579 -19.716074 29.727746 -13.731599 0.000036 0.000025 -200.214996 -26.746112 -2.896704 -12.670898 0.000005 -68.113495 -29.515839 -0.000001 0.000000 -0.000001 
-17.166649 -9.217655 375.505615 -1.173488 18.265442 -2.547719 0.000001 -0.000013 138.847321 -3.171650 -19.980180 -11.088222 -0.000019 -0.000012 110.694054 -3.272541 11.008020 -2.943250 -0.000005 -9.081777 70.383820 -1.715941 3.136701 14.737554 18.288336 2.400606 89.379532 1.275277 -5.385790 -17.573884 65.258018 -0.000006 -0.000015 -9.071013 -11.757670 8.368542 127.960480 0.000000 0.000002 1.296916 -6.607214 2.593600 118.922485 -0.000010 -0.000022 16.359099 -7.172864 -3.758535 -18.036062 2.400610 89.379517 -4.260799 -0.917054 13.866048 -65.258026 -0.000008 -0.000104 24.183308 18.318304 -22.285592 -127.960472 -0.000003 -0.000004 76.094933 37.035092 37.304103 -118.922585 0.000049 0.000054 -4.531448 7.531440 33.312796 45.409000 0.000011 -0.000064 17.459627 -37.083583 -13.908687 -0.000015 0.000028 -190.974472 16.104227 32.280044 3.216536 0.000003 0.000025 -200.215012 18.252523 4.122717 7.097377 0.000004 -68.113472 -29.515837 0.000000 -0.000002 -0.000000 -45.409004 0.000017 -0.000011 13.588873 -26.929925 35.915897 0.000009 0.000028 -190.974503 -19.778245 29.713167 -13.715475 0.000013 0.000044 -200.214996 -26.713068 -2.911080 -12.655448 0.000008 -68.113510 -29.515839 -0.000002 -0.000000 -0.000001 
-17.174002 -9.250544 375.518402 -1.156343 18.263578 -2.603826 0.000003 -0.000006 138.847321 -3.132455 -19.978911 -11.054700 0.000009 -0.000020 110.694023 -3.149772 11.065465 -2.760989 0.000028 -9.081794 70.384003 -1.614911 3.149467 14.590876 18.288359 2.400604 89.379562 1.245474 -5.421951 -17.591238 65.258011 -0.000004 0.000070 -9.069467 -11.749439 8.387916 127.960503 -0.000013 0.000003 1.297984 -6.583613 2.536153 118.922447 0.000003 0.000017 16.456543 -7.131032 -3.613122 -18.036049 2.400599 89.379456 -4.245973 -0.935052 13.899916 -65.258018 -0.000009 -0.000028 24.172449 18.258407 -22.311574 -127.960495 -0.000026 -0.000017 76.196989 37.010524 37.197613 -118.922546 0.000037 -0.000007 -4.548859 7.534369 33.340978 45.408997 0.000008 -0.000030 17.400361 -37.029635 -13.877149 -0.000004 0.000053 -190.974503 16.137572 32.238254 3.212857 0.000007 0.000038 -200.214996 18.298551 4.158442 7.073101 -0.000003 -68.113487 -29.515869 -0.000001 -0.000001 0.000000 -45.408989 0.000011 -0.000013 13.591983 -26.903352 35.974125 -0.000025 0.000041 -190.974487 -19.790707 29.704332 -13.728374 0.000002 0.000028 -200.215027 -26.711553 -2.930239 -12.657292 -0.000010 -68.113480 -29.515837 -0.000001 -0.000002 0.000000 
-17.218313 -9.233324 375.535156 -1.125231 18.276973 -2.627187 0.000001 -0.000010 138.847397 -3.101666 -19.969486 -11.049508 0.000001 -0.000001 110.693993 -3.045495 11.198243 -2.548591 -0.000021 -9.081810 70.384079 -1.512058 3.002835 14.459709 18.288361 2.400613 89.379524 1.170247 -5.461330 -17.537634 65.258011 0.000005 -0.000000 -9.101108 -11.758779 8.300129 127.960518 -0.000005 -0.000071 1.330539 -6.592414 2.513872 118.922546 -0.000021 0.000071 16.476604 -7.137766 -3.591209 -18.036045 2.400613 89.379539 -4.230092 -0.956410 13.949183 -65.258011 -0.000000 -0.000067 24.128895 18.197038 -22.359989 -127.960518 -0.000032 0.000016 76.210233 37.009694 37.145328 -118.922546 0.000082 0.000097 -4.486272 7.592346 33.351711 45.409004 0.000006 -0.000011 17.319995 -37.030048 -13.884124 -0.000004 0.000045 -190.974472 16.157287 32.224812 3.207881 -0.000005 0.000033 -200.214966 18.325659 4.183587 7.111613 0.000004 -68.113480 -29.515837 0.000001 -0.000002 0.000001 -45.409004 0.000005 -0.000004 13.591233 -26.890974 35.993485 -0.000006 0.000032 -190.974472 -19.832052 29.693616 -13.725929 0.000032 0.000030 -200.215012 -26.714581 -2.939701 -12.700143 0.000010 -68.113503 -29.515839 0.000002 0.000000 0.000000 
-17.258921 -9.230985 375.553772 -1.092799 18.289066 -2.649058 -0.000001 -0.000002 138.847305 -3.057934 -19.970411 -10.984876 0.000018 -0.000020 110.694023 -2.902407 11.284588 -2.379618 0.000016 -9.081782 70.384132 -1.375922 2.935774 14.349126 18.288364 2.400605 89.379517 1.187758 -5.514198 -17.520081 65.257957 -0.000003 0.000006 -9.229308 -11.824641 8.168934 127.960495 -0.000001 -0.000109 1.366639 -6.561385 2.512729 118.922478 0.000012 -0.000038 16.485454 -7.109109 -3.600122 -18.036049 2.400609 89.379471 -4.224342 -0.951740 13.957867 -65.258018 -0.000005 0.000008 24.128091 18.175487 -22.433690 -127.960495 -0.000047 -0.000027 76.220738 36.983333 37.128809 -118.922546 0.000046 -0.000035 -4.502078 7.564187 33.352698 45.409004 0.000015 -0.000035 17.284636 -37.029051 -13.864359 -0.000007 0.000052 -190.974503 16.150939 32.195910 3.199923 -0.000001 0.000039 -200.215012 18.346593 4.217283 7.113850 -0.000008 -68.113487 -29.515837 -0.000003 -0.000001 0.000000 -45.409004 0.000015 -0.000038 13.589468 -26.876755 36.012821 0.000005 0.000030 -190.974518 -19.855592 29.679269 -13.731884 0.000002 0.000038 -200.215027 -26.720339 -2.960578 -12.671905 -0.000001 -68.113487 -29.515839 0.000001 -0.000000 0.000000 
-17.300911 -9.238992 375.573059 -1.060214 18.295268 -2.655204 0.000001 -0.000025 138.847305 -2.986438 -19.966193 -10.901743 0.000012 -0.000024 110.694038 -2.756013 11.361919 -2.186102 0.000003 -9.081814 70.383980 -1.242592 2.875845 14.194798 18.288359 2.400600 89.379494 1.215188 -5.559088 -17.495400 65.257965 0.000005 -0.000050 -9.409115 -11.919952 7.992995 127.960548 -0.000005 0.000005 1.394231 -6.485083 2.497716 118.922485 0.000030 -0.000020 16.494437 -7.027945 -3.560784 -18.036043 2.400596 89.379440 -4.227143 -0.965402 13.972332 -65.257996 -0.000011 0.000094 24.121588 18.183635 -22.560982 -127.960495 0.000000 0.000077 76.184312 36.978228 37.151332 -118.922577 0.000000 0.000029 -4.517532 7.552126 33.381320 45.409000 0.000006 -0.000006 17.211119 -37.020216 -13.884864 0.000000 0.000020 -190.974518 16.131163 32.169085 3.215857 0.000007 0.000016 -200.215012 18.388816 4.235596 7.117635 0.000014 -68.113503 -29.515837 0.000003 -0.000002 0.000000 -45.408997 0.000005 -0.000021 13.579410 -26.859039 36.009905 -0.000010 0.000037 -190.974472 -19.926180 29.671978 -13.719261 0.000025 0.000027 -200.215027 -26.709661 -2.967243 -12.666420 -0.000017 -68.113495 -29.515837 -0.000002 -0.000000 0.000002 
-17.346668 -9.245023 375.603973 -1.020764 18.298936 -2.655074 -0.000001 -0.000010 138.847382 -2.938214 -19.952892 -10.822371 -0.000010 -0.000008 110.693947 -2.584855 11.418831 -1.947047 -0.000024 -9.081810 70.383965 -1.097195 2.879580 14.004360 18.288334 2.400614 89.379456 1.264414 -5.617693 -17.475019 65.257927 0.000002 -0.000025 -9.611464 -11.939005 7.830775 127.960472 0.000006 -0.000082 1.367471 -6.510701 2.480907 118.922508 -0.000013 -0.000014 16.457204 -7.068259 -3.676993 -18.036055 2.400609 89.379433 -4.096464 -1.041910 13.967429 -65.258003 0.000006 -0.000053 23.997784 18.417252 -22.726362 -127.960510 -0.000004 -0.000014 76.065064 37.014021 37.352631 -118.922577 0.000007 -0.000001 -4.564594 7.465462 33.360795 45.409000 0.000013 -0.000011 17.180287 -37.017890 -13.879428 0.000008 0.000024 -190.974503 16.083663 32.128660 3.221161 0.000003 0.000026 -200.215012 18.425231 4.271712 7.087614 0.000010 -68.113495 -29.515839 -0.000001 -0.000000 0.000001 -45.409004 0.000006 -0.000034 13.562817 -26.836546 35.993072 -0.000010 0.000036 -190.974548 -19.922359 29.648991 -13.724459 0.000021 0.000044 -200.214996 -26.738090 -2.970211 -12.681737 0.000006 -68.113495 -29.515837 0.000000 -0.000002 0.000000 
-17.404854 -9.253864 375.631256 -0.978677 18.301944 -2.641642 -0.000001 -0.000013 138.847336 -2.851119 -19.951006 -10.701638 0.000000 -0.000020 110.694054 -2.405314 11.480139 -1.746909 -0.000002 -9.081811 70.384010 -0.942876 2.899128 13.824585 18.288353 2.400600 89.379486 1.323808 -5.665130 -17.482979 65.257950 0.000002 0.000012 -9.868001 -11.879346 7.658109 127.960495 0.000014 -0.000055 1.312706 -6.544190 2.426568 118.922523 -0.000004 0.000020 16.415987 -7.101927 -3.700319 -18.036057 2.400601 89.379501 -4.166733 -1.005000 13.973185 -65.258003 -0.000010 0.000061 23.988275 18.233310 -22.860715 -127.960464 -0.000048 0.000054 76.131822 36.974351 37.161922 -118.922516 -0.000008 -0.000041 -4.567222 7.554869 33.336494 45.409000 0.000010 -0.000023 17.164716 -37.030957 -13.890562 -0.000026 0.000035 -190.974564 16.046090 32.103972 3.233305 -0.000005 0.000038 -200.215012 18.433043 4.297411 7.085055 0.000014 -68.113487 -29.515841 -0.000001 0.000001 0.000001 -45.409004 0.000004 -0.000031 13.540042 -26.812015 35.958193 0.000021 0.000030 -190.974518 -19.978660 29.630891 -13.706871 0.000013 0.000046 -200.215027 -26.734592 -2.973412 -12.683598 -0.000003 -68.113480 -29.515839 -0.000001 -0.000000 0.000000 
-17.456867 -9.272863 375.665039 -0.936947 18.300104 -2.620949 0.000001 -0.000021 138.847290 -2.768654 -19.958139 -10.590371 -0.000005 -0.000008 110.694054 -2.229347 11.549251 -1.495147 -0.000006 -9.081786 70.383980 -0.801190 2.956041 13.615408 18.288345 2.400604 89.379555 1.342867 -5.728846 -17.463236 65.258011 -0.000012 -0.000035 -10.101723 -11.773592 7.451953 127.960503 0.000011 -0.000028 1.218688 -6.569054 2.390522 118.922485 -0.000023 0.000039 16.467163 -7.133678 -3.753104 -18.036055 2.400610 89.379494 -4.319929 -0.905384 14.003539 -65.258003 -0.000015 -0.000060 24.069083 17.999039 -22.983938 -127.960442 -0.000042 0.000051 76.133721 36.902488 36.991219 -118.922554 0.000036 0.000071 -4.553118 7.626998 33.337815 45.408997 0.000010 -0.000051 17.223280 -37.052738 -13.849532 -0.000007 0.000033 -190.974487 16.049100 32.062014 3.163966 -0.000009 0.000027 -200.215027 18.353968 4.336767 7.089648 0.000006 -68.113457 -29.515839 0.000001 -0.000000 -0.000001 -45.408993 0.000001 -0.000063 13.514449 -26.786059 35.916341 -0.000002 0.000034 -190.974533 -19.963487 29.606012 -13.723686 0.000002 0.000025 -200.214996 -26.785570 -2.969996 -12.682167 -0.000001 -68.113495 -29.515839 -0.000000 -0.000000 0.000001 
